<?xml version="1.0" encoding="UTF-8" standalone="no"?>
<!-- Created with Inkscape (http://www.inkscape.org/) -->

<svg
   width="146.95078mm"
   height="47.140892mm"
   viewBox="0 0 146.95078 47.140892"
   version="1.1"
   id="svg8"
   xmlns="http://www.w3.org/2000/svg"
   xmlns:svg="http://www.w3.org/2000/svg"
   xmlns:rdf="http://www.w3.org/1999/02/22-rdf-syntax-ns#"
   xmlns:cc="http://creativecommons.org/ns#"
   xmlns:dc="http://purl.org/dc/elements/1.1/">
  <defs
     id="defs2" />
  <metadata
     id="metadata5">
    <rdf:RDF>
      <cc:Work
         rdf:about="">
        <dc:format>image/svg+xml</dc:format>
        <dc:type
           rdf:resource="http://purl.org/dc/dcmitype/StillImage" />
      </cc:Work>
    </rdf:RDF>
  </metadata>
  <g
     id="g1292">
    <path
       id="path968"
       style="fill:#feffff;fill-opacity:1;fill-rule:evenodd;stroke:none;stroke-width:0.0700042px;stroke-linecap:butt;stroke-linejoin:miter;stroke-opacity:1"
       d="m 17.926502,0.122818 -6.011207,3.470806 a 0.91643846,0.91643846 0 0 1 -0.916517,-1.8e-5 L 9.317628,2.622836 A 0.9162711,0.9162711 0 0 0 8.401153,2.62289 L 5.655488,4.208787 A 0.91674198,0.91674198 0 0 0 5.197266,5.002623 V 6.942335 A 0.9167438,0.9167438 0 0 1 4.739044,7.736172 L 0.458222,10.208786 A 0.9167438,0.9167438 0 0 0 0,11.002623 v 18.0569 2.115234 a 0.91692071,0.91692071 0 0 0 0.458177,0.793914 l 0.915677,0.5291 a 2286.8691,2286.8691 0 0 0 0.916477,0.529282 l 1.979885,1.142805 a 0.3055521,0.3055521 0 0 0 0.4583,-0.264632 V 32.502623 A 0.91721489,0.91721489 0 0 0 4.270412,31.708582 L 2.588964,30.736376 A 0.91721489,0.91721489 0 0 1 2.13086,29.942335 V 12.235045 A 0.91688301,0.91688301 0 0 1 2.589047,11.441148 L 5.803532,9.583889 a 0.91613021,0.91613021 0 0 1 0.91644,-1.15e-4 l 1.68115,0.97077 a 0.91651552,0.91651552 0 0 0 0.916536,5.2e-5 l 2.747497,-1.586109 a 0.91649747,0.91649747 0 0 0 0.458283,-0.79373 V 6.235045 a 0.91690648,0.91690648 0 0 1 0.458181,-0.793907 l 4.944966,-2.857239 a 0.916451,0.916451 0 0 1 0.91652,-2.74e-4 l 1.682931,0.971068 a 0.91673323,0.91673323 0 0 0 0.916591,-1.52e-4 l 1.214356,-0.701233 a 0.30550399,0.30550399 0 0 0 -4.8e-5,-0.529153 L 18.843066,0.122756 a 0.91662478,0.91662478 0 0 0 -0.916564,6.2e-5 z M 9.31745,5.084084 9.934503,5.440953 a 0.91733263,0.91733263 0 0 1 0.458075,0.794092 v 0.70729 A 0.91733263,0.91733263 0 0 1 9.934503,7.736427 L 9.31745,8.093296 a 0.91496847,0.91496847 0 0 1 -0.91615,0 L 7.784247,7.736427 A 0.91733263,0.91733263 0 0 1 7.326172,6.942335 V 6.235045 A 0.91733263,0.91733263 0 0 1 7.784247,5.440953 L 8.4013,5.084084 a 0.91496847,0.91496847 0 0 1 0.91615,0 z M 26.5886,5.122794 9.118432,15.208875 a 0.91652881,0.91652881 0 0 0 -0.458275,0.793744 v 5.939712 A 0.91721471,0.91721471 0 0 1 8.202053,22.736372 L 6.520604,23.708578 A 0.91721471,0.91721471 0 0 0 6.0625,24.502619 v 3.172134 a 0.91721471,0.91721471 0 0 0 0.458104,0.794041 L 8.202053,29.441 a 0.91721471,0.91721471 0 0 1 0.458104,0.794041 v 5.939712 a 0.91692071,0.91692071 0 0 0 0.458177,0.793914 l 0.915677,0.5291 a 2863.0058,2863.0058 0 0 0 0.916452,0.529324 l 6.976028,4.027487 a 0.91689642,0.91689642 0 0 0 0.916631,1.4e-4 l 0.149694,-0.08636 a 0.91620508,0.91620508 0 0 0 0.458356,-0.793604 V 22.235042 A 0.91676162,0.91676162 0 0 1 19.909389,21.4412 l 5.612863,-3.242129 a 0.30544185,0.30544185 0 0 1 0.458217,0.264489 v 18.941666 a 0.30548758,0.30548758 0 0 0 0.458252,0.264549 l 1.214355,-0.701233 a 0.91662439,0.91662439 0 0 0 0.458252,-0.793785 V 16.004576 a 0.91765905,0.91765905 0 0 0 -0.457993,-0.794233 l -0.15042,-0.08706 a 0.91537068,0.91537068 0 0 0 -0.91625,-4.57e-4 l -8.808095,5.086017 a 0.91660309,0.91660309 0 0 0 -0.458257,0.793776 V 38.71382 a 0.30544185,0.30544185 0 0 1 -0.458217,0.264489 L 11.249233,35.73618 a 0.91676162,0.91676162 0 0 1 -0.458217,-0.793845 v -4.70729 a 0.91721489,0.91721489 0 0 1 0.458104,-0.794041 l 1.681448,-0.972206 a 0.91721489,0.91721489 0 0 0 0.458104,-0.794041 V 24.502623 A 0.91721489,0.91721489 0 0 0 12.930568,23.708582 L 11.24912,22.736376 a 0.91721489,0.91721489 0 0 1 -0.458104,-0.794041 v -4.70729 a 0.9166131,0.9166131 0 0 1 0.458254,-0.79378 L 28.719481,6.353303 a 0.30556457,0.30556457 0 0 0 2e-6,-0.529231 L 27.505127,5.122839 A 0.9164777,0.9164777 0 0 0 26.5886,5.122798 Z m 6.062419,3.49986 -1.2161,0.701595 a 0.30552722,0.30552722 0 0 0 -1.79e-4,0.529184 l 2.747708,1.587694 a 0.91692071,0.91692071 0 0 1 0.458177,0.793914 v 5.70729 a 0.91721489,0.91721489 0 0 1 -0.458104,0.794041 l -1.681448,0.972206 a 0.91721489,0.91721489 0 0 0 -0.458104,0.794045 v 3.172134 a 0.91721489,0.91721489 0 0 0 0.458104,0.794041 l 1.681448,0.972206 a 0.91721489,0.91721489 0 0 1 0.458104,0.794041 v 3.70729 a 0.91721489,0.91721489 0 0 1 -0.458104,0.794041 l -1.681448,0.972206 a 0.91721489,0.91721489 0 0 0 -0.458104,0.794041 v 1.402603 a 0.30548884,0.30548884 0 0 0 0.458253,0.26455 l 3.81201,-2.201235 a 0.91662061,0.91662061 0 0 0 0.458253,-0.793784 v -4.939712 a 0.91721489,0.91721489 0 0 1 0.458104,-0.794041 l 1.681448,-0.972206 a 0.91721489,0.91721489 0 0 0 0.458104,-0.794041 V 20.502623 A 0.91721489,0.91721489 0 0 0 38.911037,19.708582 L 37.229589,18.736376 A 0.91721489,0.91721489 0 0 1 36.771485,17.942335 V 11.002623 A 0.91674185,0.91674185 0 0 0 36.313263,10.208787 L 33.567597,8.62289 a 0.91668426,0.91668426 0 0 0 -0.916578,-2.32e-4 z m 3.512134,11.961426 0.617053,0.356869 a 0.91733263,0.91733263 0 0 1 0.458075,0.794092 v 0.70729 a 0.91733263,0.91733263 0 0 1 -0.458075,0.794092 l -0.617053,0.356869 A 0.91438545,0.91438545 0 0 1 35.24715,23.593039 L 34.631756,23.23668 a 0.91791847,0.91791847 0 0 1 -0.457928,-0.794345 v -0.70729 A 0.91791847,0.91791847 0 0 1 34.631756,20.9407 l 0.615394,-0.356363 a 0.91438545,0.91438545 0 0 1 0.916003,-2.53e-4 z m -25.980468,4 0.617053,0.356869 a 0.91733263,0.91733263 0 0 1 0.458075,0.794092 v 0.70729 a 0.91733263,0.91733263 0 0 1 -0.458075,0.794092 l -0.617053,0.356869 a 0.91496847,0.91496847 0 0 1 -0.91615,0 L 8.649482,27.236423 A 0.91733263,0.91733263 0 0 1 8.191407,26.442331 v -0.70729 A 0.91733263,0.91733263 0 0 1 8.649482,24.940949 L 9.266535,24.58408 a 0.91496847,0.91496847 0 0 1 0.91615,0 z" />
    <g
       aria-label="scipp"
       id="text897"
       style="font-size:41.0089px;line-height:19.2229px;font-family:Lato;-inkscape-font-specification:Lato;letter-spacing:0px;word-spacing:0px;fill:#feffff;stroke-width:0.264583px;fill-opacity:1"
       transform="translate(-25.582031,-19.09881)">
      <path
         d="m 96.605021,33.760453 q -0.205044,0.328071 -0.430593,0.471602 -0.225549,0.123027 -0.574125,0.123027 -0.36908,0 -0.799674,-0.205045 -0.410089,-0.205044 -0.963709,-0.451098 -0.55362,-0.266557 -1.271276,-0.471602 -0.697151,-0.205044 -1.66086,-0.205044 -1.496825,0 -2.358012,0.635637 -0.840682,0.635638 -0.840682,1.660861 0,0.676647 0.430593,1.148249 0.451098,0.451098 1.168754,0.799674 0.73816,0.348575 1.66086,0.635638 0.922701,0.266557 1.865905,0.594629 0.963709,0.328071 1.88641,0.758664 0.9227,0.410089 1.640356,1.066232 0.73816,0.635638 1.168753,1.537833 0.451098,0.902196 0.451098,2.173472 0,1.517329 -0.55362,2.80911 -0.533116,1.271276 -1.599347,2.21448 -1.066231,0.922701 -2.645074,1.455816 -1.558338,0.512611 -3.608783,0.512611 -1.086736,0 -2.132463,-0.205044 -1.025223,-0.18454 -1.988932,-0.533116 -0.943204,-0.348575 -1.763382,-0.820178 -0.799674,-0.471602 -1.414807,-1.025222 l 1.168753,-1.927418 q 0.225549,-0.348576 0.533116,-0.533116 0.307567,-0.18454 0.779169,-0.18454 0.471602,0 0.881691,0.266558 0.430594,0.266557 0.984214,0.574124 0.55362,0.307567 1.29178,0.574125 0.758665,0.266558 1.906914,0.266558 0.902196,0 1.537834,-0.205045 0.656142,-0.225549 1.066231,-0.574124 0.430594,-0.348576 0.615134,-0.799674 0.205044,-0.471602 0.205044,-0.963709 0,-0.73816 -0.451098,-1.209763 -0.430593,-0.471602 -1.168753,-0.820178 -0.717656,-0.348575 -1.660861,-0.615133 -0.9227,-0.287062 -1.906914,-0.615134 -0.963709,-0.328071 -1.906913,-0.758664 -0.922701,-0.451098 -1.660861,-1.127745 -0.717656,-0.676647 -1.168753,-1.66086 -0.430594,-0.984214 -0.430594,-2.378517 0,-1.29178 0.512611,-2.460534 0.512612,-1.168753 1.496825,-2.02994 1.004718,-0.881691 2.481039,-1.394303 1.496824,-0.533115 3.444747,-0.533115 2.173472,0 3.957359,0.717655 1.783887,0.717656 2.973145,1.88641 z"
         style="font-weight:bold;-inkscape-font-specification:'Lato Bold';fill:#feffff;fill-opacity:1"
         id="path876" />
      <path
         d="m 116.86337,34.109028 q -0.22555,0.287063 -0.45109,0.451098 -0.20505,0.164036 -0.61514,0.164036 -0.38958,0 -0.75866,-0.225549 -0.36908,-0.246053 -0.88169,-0.533116 -0.51262,-0.307567 -1.23027,-0.533115 -0.69715,-0.246054 -1.74288,-0.246054 -1.33279,0 -2.33751,0.492107 -1.00471,0.471602 -1.68136,1.373798 -0.65614,0.902196 -0.98422,2.193976 -0.32807,1.271276 -0.32807,2.891128 0,1.681365 0.34858,2.993649 0.36908,1.312285 1.04573,2.214481 0.67664,0.881691 1.64035,1.353294 0.96371,0.451097 2.17347,0.451097 1.20977,0 1.94793,-0.287062 0.75866,-0.307567 1.27127,-0.656142 0.51261,-0.36908 0.88169,-0.656143 0.38959,-0.307566 0.86119,-0.307566 0.61513,0 0.9227,0.471602 l 1.45582,1.8454 q -0.84069,0.984214 -1.8249,1.660861 -0.98421,0.656142 -2.05044,1.066231 -1.04573,0.389585 -2.17348,0.55362 -1.10724,0.164036 -2.21448,0.164036 -1.94792,0 -3.67029,-0.717656 -1.72238,-0.73816 -3.01416,-2.132462 -1.29178,-1.394303 -2.05044,-3.403739 -0.73816,-2.029941 -0.73816,-4.613501 0,-2.317003 0.65614,-4.28543 0.67665,-1.988932 1.96843,-3.424244 1.29178,-1.455815 3.19869,-2.275993 1.90692,-0.820178 4.38795,-0.820178 2.35802,0 4.1214,0.758664 1.78389,0.758665 3.19869,2.173472 z"
         style="font-weight:bold;-inkscape-font-specification:'Lato Bold';fill:#feffff;fill-opacity:1"
         id="path878" />
      <path
         d="m 126.80797,29.659563 v 21.037565 h -5.08511 V 29.659563 Z m 0.69715,-6.130831 q 0,0.656143 -0.26656,1.230267 -0.26656,0.574125 -0.71765,1.004718 -0.4306,0.430594 -1.02523,0.697152 -0.59463,0.246053 -1.27127,0.246053 -0.65615,0 -1.25077,-0.246053 -0.57413,-0.266558 -1.00472,-0.697152 -0.4306,-0.430593 -0.69715,-1.004718 -0.24606,-0.574124 -0.24606,-1.230267 0,-0.676647 0.24606,-1.271276 0.26655,-0.594629 0.69715,-1.025222 0.43059,-0.430594 1.00472,-0.676647 0.59462,-0.266558 1.25077,-0.266558 0.67664,0 1.27127,0.266558 0.59463,0.246053 1.02523,0.676647 0.45109,0.430593 0.71765,1.025222 0.26656,0.594629 0.26656,1.271276 z"
         style="font-weight:bold;-inkscape-font-specification:'Lato Bold';fill:#feffff;fill-opacity:1"
         id="path880" />
      <path
         d="M 132.83626,57.914695 V 30.295201 h 1.08674 q 0.51261,0 0.59463,0.512611 l 0.18454,3.157685 q 1.35329,-1.8454 3.17819,-2.932136 1.82489,-1.086736 4.08038,-1.086736 3.75232,0 5.84377,2.604065 2.11196,2.604065 2.11196,7.812196 0,2.234985 -0.59463,4.182907 -0.57412,1.927419 -1.72237,3.36273 -1.12775,1.414807 -2.78861,2.234985 -1.64035,0.820178 -3.79332,0.820178 -2.07095,0 -3.58828,-0.758665 -1.51733,-0.758664 -2.62457,-2.234985 v 9.944659 z m 8.57086,-26.389227 q -2.02994,0 -3.67029,1.045727 -1.64036,1.045727 -2.93214,2.911632 v 10.764836 q 1.16875,1.763382 2.58356,2.481038 1.41481,0.697151 3.26021,0.697151 1.80439,0 3.15768,-0.656142 1.3533,-0.656142 2.25549,-1.8454 0.9227,-1.209763 1.3738,-2.870623 0.4716,-1.681365 0.4716,-3.690801 0,-4.551988 -1.68136,-6.684451 -1.68137,-2.152967 -4.81855,-2.152967 z"
         style="font-weight:300;-inkscape-font-specification:'Lato Light';fill:#feffff;fill-opacity:1"
         id="path882" />
      <path
         d="M 155.4526,57.914695 V 30.295201 h 1.08674 q 0.51261,0 0.59463,0.512611 l 0.18454,3.157685 q 1.35329,-1.8454 3.17819,-2.932136 1.82489,-1.086736 4.08038,-1.086736 3.75232,0 5.84377,2.604065 2.11196,2.604065 2.11196,7.812196 0,2.234985 -0.59463,4.182907 -0.57412,1.927419 -1.72237,3.36273 -1.12775,1.414807 -2.78861,2.234985 -1.64035,0.820178 -3.79332,0.820178 -2.07095,0 -3.58828,-0.758665 -1.51733,-0.758664 -2.62457,-2.234985 v 9.944659 z m 8.57086,-26.389227 q -2.02994,0 -3.67029,1.045727 -1.64036,1.045727 -2.93214,2.911632 v 10.764836 q 1.16875,1.763382 2.58356,2.481038 1.41481,0.697151 3.26021,0.697151 1.80439,0 3.15768,-0.656142 1.3533,-0.656142 2.25549,-1.8454 0.9227,-1.209763 1.3738,-2.870623 0.4716,-1.681365 0.4716,-3.690801 0,-4.551988 -1.68136,-6.684451 -1.68137,-2.152967 -4.81855,-2.152967 z"
         style="font-weight:300;-inkscape-font-specification:'Lato Light';fill:#feffff;fill-opacity:1"
         id="path884" />
    </g>
    <g
       aria-label="NeXus"
       id="text5266"
       style="font-size:16.0336px;line-height:12.884px;font-family:Lato;-inkscape-font-specification:Lato;letter-spacing:0px;word-spacing:0px;fill:#ffffff;stroke-width:0.264583px;fill-opacity:1"
       transform="translate(-25.582031,-19.09881)">
      <path
         d="m 83.736268,54.623361 q 0.104219,0 0.17637,0.01603 0.07215,0.008 0.128269,0.04008 0.05612,0.02405 0.112235,0.08017 0.05612,0.0481 0.120252,0.128269 l 6.645927,8.650127 q -0.01603,-0.208437 -0.03207,-0.40084 -0.008,-0.20042 -0.008,-0.376789 v -8.137052 h 1.362856 V 66.11143 h -0.777629 q -0.184387,0 -0.312656,-0.06413 -0.120252,-0.06414 -0.240504,-0.216454 L 84.265377,57.18072 q 0.01603,0.20042 0.02405,0.392823 0.008,0.192403 0.008,0.352739 v 8.185153 H 82.934588 V 54.623361 Z"
         id="path1004"
         style="fill:#ffffff;fill-opacity:1" />
      <path
         d="m 97.917944,57.862148 q 0.729528,0 1.346822,0.248521 0.62531,0.240504 1.074254,0.705478 0.45695,0.456958 0.71349,1.138386 0.25654,0.673411 0.25654,1.539225 0,0.336706 -0.0721,0.448941 -0.0722,0.112235 -0.27257,0.112235 h -5.427376 q 0.01603,0.769613 0.208437,1.338806 0.192403,0.569193 0.529109,0.953999 0.336705,0.37679 0.80168,0.569193 0.464974,0.184386 1.042184,0.184386 0.537125,0 0.921932,-0.120252 0.392823,-0.128269 0.673411,-0.272571 0.280588,-0.144302 0.464973,-0.264554 0.1924,-0.128269 0.32869,-0.128269 0.17637,0 0.27257,0.136285 l 0.40084,0.521092 q -0.26455,0.320672 -0.63333,0.561176 -0.36877,0.232488 -0.793659,0.384807 -0.416874,0.152319 -0.865815,0.22447 -0.44894,0.08017 -0.889864,0.08017 -0.841764,0 -1.55526,-0.280588 -0.705478,-0.288605 -1.22657,-0.833747 -0.513075,-0.553159 -0.80168,-1.362856 -0.288605,-0.809697 -0.288605,-1.859898 0,-0.84978 0.256538,-1.587326 0.264554,-0.737546 0.753579,-1.274671 0.489025,-0.545143 1.194503,-0.849781 0.705479,-0.312655 1.587327,-0.312655 z m 0.03207,1.050201 q -1.034167,0 -1.627411,0.60126 -0.593243,0.593243 -0.737545,1.65146 h 4.441302 q 0,-0.497041 -0.144297,-0.905898 -0.136286,-0.416874 -0.408857,-0.713495 -0.264555,-0.304639 -0.649361,-0.464975 -0.384806,-0.168352 -0.873831,-0.168352 z"
         id="path1006"
         style="fill:#ffffff;fill-opacity:1" />
      <path
         d="m 105.7744,60.21107 -3.79195,-5.587709 h 1.54724 q 0.16836,0 0.24852,0.05612 0.0802,0.05612 0.14431,0.160336 l 2.99828,4.601643 q 0.0561,-0.168352 0.16835,-0.368772 l 2.82993,-4.200804 q 0.0641,-0.112235 0.15232,-0.176369 0.0882,-0.07215 0.20844,-0.07215 h 1.48311 l -3.80798,5.515558 3.93625,5.972516 h -1.53923 q -0.17637,0 -0.28059,-0.08818 -0.0962,-0.0962 -0.16033,-0.208437 l -3.07845,-4.818096 q -0.0561,0.168352 -0.14431,0.320672 l -2.99828,4.497424 q -0.0802,0.112236 -0.17637,0.208437 -0.0882,0.08818 -0.24852,0.08818 h -1.44302 z"
         id="path1008"
         style="fill:#ffffff;fill-opacity:1" />
      <path
         d="m 114.03966,57.990417 v 5.178852 q 0,0.921932 0.41688,1.426991 0.42489,0.505058 1.2907,0.505058 0.62531,0 1.17847,-0.296621 0.55316,-0.296622 1.01813,-0.825731 v -5.988549 h 1.42699 v 8.121018 h -0.84978 q -0.30463,0 -0.3848,-0.296622 l -0.11224,-0.873831 q -0.52911,0.585227 -1.18648,0.945983 -0.65738,0.352739 -1.50716,0.352739 -0.6654,0 -1.17847,-0.216454 -0.50506,-0.22447 -0.84978,-0.62531 -0.34473,-0.40084 -0.5211,-0.970033 -0.16835,-0.569193 -0.16835,-1.258638 v -5.178852 z"
         id="path1010"
         style="fill:#ffffff;fill-opacity:1" />
      <path
         d="m 126.36147,59.329222 q -0.0962,0.17637 -0.29662,0.17637 -0.12026,0 -0.27258,-0.08819 -0.15231,-0.08818 -0.37679,-0.192403 -0.21645,-0.112235 -0.52109,-0.20042 -0.30464,-0.0962 -0.72151,-0.0962 -0.36076,0 -0.64936,0.0962 -0.2886,0.08819 -0.49704,0.248521 -0.20042,0.160336 -0.31266,0.376789 -0.10422,0.208437 -0.10422,0.456958 0,0.312655 0.17637,0.521092 0.18439,0.208437 0.48101,0.360756 0.29662,0.152319 0.67341,0.272571 0.37679,0.112235 0.76962,0.248521 0.40084,0.128269 0.77763,0.288605 0.37679,0.160336 0.67341,0.40084 0.29662,0.240504 0.47299,0.593243 0.18438,0.344722 0.18438,0.833747 0,0.561176 -0.20042,1.042184 -0.20042,0.472991 -0.59324,0.82573 -0.39282,0.344723 -0.96201,0.545143 -0.5692,0.20042 -1.31476,0.20042 -0.84978,0 -1.53923,-0.272571 -0.68944,-0.280588 -1.17045,-0.713496 l 0.33671,-0.545142 q 0.0641,-0.104218 0.15232,-0.160336 0.0882,-0.05612 0.22447,-0.05612 0.1443,0 0.30464,0.112236 0.16033,0.112235 0.3848,0.24852 0.23249,0.136286 0.56118,0.248521 0.32869,0.112235 0.81771,0.112235 0.41688,0 0.72953,-0.104218 0.31266,-0.112235 0.52109,-0.296622 0.20844,-0.184386 0.30464,-0.42489 0.10422,-0.240504 0.10422,-0.513075 0,-0.336706 -0.18439,-0.553159 -0.17637,-0.224471 -0.47299,-0.37679 -0.29662,-0.160336 -0.68143,-0.272571 -0.37679,-0.120252 -0.77763,-0.248521 -0.39282,-0.128269 -0.77763,-0.288605 -0.37679,-0.168353 -0.67341,-0.416873 -0.29662,-0.248521 -0.481,-0.609277 -0.17637,-0.368773 -0.17637,-0.889865 0,-0.464974 0.1924,-0.889865 0.1924,-0.432907 0.56117,-0.753579 0.36878,-0.328689 0.9059,-0.521092 0.53713,-0.192403 1.22657,-0.192403 0.80168,0 1.43501,0.256537 0.64134,0.248521 1.10632,0.689445 z"
         id="path1012"
         style="fill:#ffffff;fill-opacity:1" />
    </g>
  </g>
</svg>
